# xmcd CD database file
#
# Track frame offsets:
#	150
#	3690
#	18850
#	42470
#	51405
#	63897
#	76347
#	93240
#	105605
#	129010
#	144377
#	161557
#	181740
#	194290
#	214615
#	231417
#	258142
#	269572
#	290537
#
# Disc length: 4079 seconds
#
# Revision: 0
# Processed by: cddbd v1.5.1PL0 Copyright (c) Steve Scherf et al.
# Submitted via: CDex 1.51
#
DISCID=030fed13
DTITLE=Sidney Bechet - In New York
DYEAR=1900
DGENRE=Jazz
TTITLE0=Way Down Yonder In New Orleans
TTITLE1=Muskrat Ramble
TTITLE2=Just One of Those Things
TTITLE3=Laura
TTITLE4=Boogie Woogie Cocktail
TTITLE5=Baby Wont You Please Come Home
TTITLE6=High Society
TTITLE7=Royal Garden Blues
TTITLE8=Storyville Blues
TTITLE9=Casey Jones
TTITLE10=Muskrat Ramble
TTITLE11=I Found A New Baby
TTITLE12=Bugle Call Rag
TTITLE13=Careless Love
TTITLE14=Panama
TTITLE15=Tin Roof Blues
TTITLE16=September Song
TTITLE17=I Wish I Could Shimmy Like My Sister Kate
TTITLE18=Royal Garden Blues
EXTD=
EXTT0=
EXTT1=
EXTT2=
EXTT3=
EXTT4=
EXTT5=
EXTT6=
EXTT7=
EXTT8=
EXTT9=
EXTT10=
EXTT11=
EXTT12=
EXTT13=
EXTT14=
EXTT15=
EXTT16=
EXTT17=
EXTT18=
PLAYORDER=
